# OBJ written from C:\Users\nickh\Google Drive\SAE\Trimester 1\GAM405\Project\GAM405.1\Assets\Models\PowerUp_Shotgun.obj
# Units	meters

o powerUp_Shotgun
v -0.122 0.0167 0.06188
v -0.182 0.0767 0.06188
v -0.182 0.3753 0.06188
v -0.122 0.4353 0.06188
v 0.122 0.4353 0.06188
v 0.182 0.3753 0.06188
v 0.182 0.0767 0.06188
v 0.122 0.0167 0.06188
v -0.10742 0.0519 0.06188
v -0.1468 0.0912803 0.06188
v -0.1468 0.36072 0.06188
v -0.10742 0.4001 0.06188
v 0.10742 0.4001 0.06188
v 0.1468 0.36072 0.06188
v 0.1468 0.0912803 0.06188
v 0.10742 0.0519 0.06188
v -0.10742 0.0519 0.04988
v -0.1468 0.0912803 0.04988
v -0.1468 0.36072 0.04988
v -0.10742 0.4001 0.04988
v 0.10742 0.4001 0.04988
v 0.1468 0.36072 0.04988
v 0.1468 0.0912803 0.04988
v 0.10742 0.0519 0.04988
v -0.0954903 0.0807 0.04988
v -0.118 0.10321 0.04988
v -0.118 0.34879 0.04988
v -0.0954903 0.3713 0.04988
v 0.0954903 0.3713 0.04988
v 0.118 0.34879 0.04988
v 0.118 0.10321 0.04988
v 0.0954903 0.0807 0.04988
v -0.0954903 0.0807 0.05988
v -0.118 0.10321 0.05988
v -0.118 0.34879 0.05988
v -0.0954903 0.3713 0.05988
v 0.0954903 0.3713 0.05988
v 0.118 0.34879 0.05988
v 0.118 0.10321 0.05988
v 0.0954903 0.0807 0.05988
v 0.122 0.0167 0.0282585
v -0.122 0.0167 0.0282585
v 0.182 0.3753 0.0282585
v 0.182 0.0767 0.0282585
v -0.122 0.4353 0.0282585
v 0.122 0.4353 0.0282585
v -0.182 0.0767 0.0282585
v -0.182 0.3753 0.0282585
v 0.112887 0.0387 0.0206267
v -0.112887 0.0387 0.0206267
v 0.16 0.366187 0.0206267
v 0.16 0.0858127 0.0206267
v -0.112887 0.4133 0.0206267
v 0.112887 0.4133 0.0206267
v -0.16 0.0858127 0.0206267
v -0.16 0.366187 0.0206267
v -0.0801814 0.3337 0.05588
v -0.0697955 0.3337 0.0809538
v -0.0447216 0.3337 0.0913398
v -0.0196478 0.3337 0.0809538
v -0.00926187 0.3337 0.05588
v 0.00926187 0.3337 0.05588
v 0.0196478 0.3337 0.0809538
v 0.0447216 0.3337 0.0913398
v 0.0697955 0.3337 0.0809538
v 0.0801814 0.3337 0.05588
v -0.0801814 0.161699 0.05588
v -0.0697955 0.161699 0.0809538
v -0.0447216 0.161699 0.0913398
v -0.0196478 0.161699 0.0809538
v -0.00926187 0.161699 0.05588
v 0.00926187 0.161699 0.05588
v 0.0196478 0.161699 0.0809538
v 0.0447216 0.161699 0.0913398
v 0.0697955 0.161699 0.0809538
v 0.0801814 0.161699 0.05588
v -0.0824728 0.1183 0.05588
v -0.0714157 0.1183 0.0825741
v -0.0447216 0.1183 0.0936312
v -0.0180275 0.1183 0.0825741
v -0.00697045 0.1183 0.05588
v 0.00697045 0.1183 0.05588
v 0.0180275 0.1183 0.0825741
v 0.0447216 0.1183 0.0936312
v 0.0714157 0.1183 0.0825741
v 0.0824728 0.1183 0.05588
v -0.0824728 0.161699 0.05588
v -0.0714157 0.161699 0.0825741
v -0.0447216 0.161699 0.0936312
v -0.0180275 0.161699 0.0825741
v -0.00697045 0.161699 0.05588
v 0.00697045 0.161699 0.05588
v 0.0180275 0.161699 0.0825741
v 0.0447216 0.161699 0.0936312
v 0.0714157 0.161699 0.0825741
v 0.0824728 0.161699 0.05588
v -0.122 0.0167 -0.06188
v -0.182 0.0767 -0.06188
v -0.182 0.3753 -0.06188
v -0.122 0.4353 -0.06188
v 0.122 0.4353 -0.06188
v 0.182 0.3753 -0.06188
v 0.182 0.0767 -0.06188
v 0.122 0.0167 -0.06188
v -0.10742 0.0519 -0.06188
v -0.1468 0.0912803 -0.06188
v -0.1468 0.36072 -0.06188
v -0.10742 0.4001 -0.06188
v 0.10742 0.4001 -0.06188
v 0.1468 0.36072 -0.06188
v 0.1468 0.0912803 -0.06188
v 0.10742 0.0519 -0.06188
v -0.10742 0.0519 -0.04988
v -0.1468 0.0912803 -0.04988
v -0.1468 0.36072 -0.04988
v -0.10742 0.4001 -0.04988
v 0.10742 0.4001 -0.04988
v 0.1468 0.36072 -0.04988
v 0.1468 0.0912803 -0.04988
v 0.10742 0.0519 -0.04988
v -0.0954903 0.0807 -0.04988
v -0.118 0.10321 -0.04988
v -0.118 0.34879 -0.04988
v -0.0954903 0.3713 -0.04988
v 0.0954903 0.3713 -0.04988
v 0.118 0.34879 -0.04988
v 0.118 0.10321 -0.04988
v 0.0954903 0.0807 -0.04988
v -0.0954903 0.0807 -0.05988
v -0.118 0.10321 -0.05988
v -0.118 0.34879 -0.05988
v -0.0954903 0.3713 -0.05988
v 0.0954903 0.3713 -0.05988
v 0.118 0.34879 -0.05988
v 0.118 0.10321 -0.05988
v 0.0954903 0.0807 -0.05988
v 0.122 0.0167 -0.0282585
v -0.122 0.0167 -0.0282585
v 0.182 0.3753 -0.0282585
v 0.182 0.0767 -0.0282585
v -0.122 0.4353 -0.0282585
v 0.122 0.4353 -0.0282585
v -0.182 0.0767 -0.0282585
v -0.182 0.3753 -0.0282585
v 0.112887 0.0387 -0.0206267
v -0.112887 0.0387 -0.0206267
v 0.16 0.366187 -0.0206267
v 0.16 0.0858127 -0.0206267
v -0.112887 0.4133 -0.0206267
v 0.112887 0.4133 -0.0206267
v -0.16 0.0858127 -0.0206267
v -0.16 0.366187 -0.0206267
v -0.0801814 0.3337 -0.05588
v -0.0697955 0.3337 -0.0809538
v -0.0447216 0.3337 -0.0913398
v -0.0196478 0.3337 -0.0809538
v -0.00926187 0.3337 -0.05588
v 0.00926187 0.3337 -0.05588
v 0.0196478 0.3337 -0.0809538
v 0.0447216 0.3337 -0.0913398
v 0.0697955 0.3337 -0.0809538
v 0.0801814 0.3337 -0.05588
v -0.0801814 0.161699 -0.05588
v -0.0697955 0.161699 -0.0809538
v -0.0447216 0.161699 -0.0913398
v -0.0196478 0.161699 -0.0809538
v -0.00926187 0.161699 -0.05588
v 0.00926187 0.161699 -0.05588
v 0.0196478 0.161699 -0.0809538
v 0.0447216 0.161699 -0.0913398
v 0.0697955 0.161699 -0.0809538
v 0.0801814 0.161699 -0.05588
v -0.0824728 0.1183 -0.05588
v -0.0714157 0.1183 -0.0825741
v -0.0447216 0.1183 -0.0936312
v -0.0180275 0.1183 -0.0825741
v -0.00697045 0.1183 -0.05588
v 0.00697045 0.1183 -0.05588
v 0.0180275 0.1183 -0.0825741
v 0.0447216 0.1183 -0.0936312
v 0.0714157 0.1183 -0.0825741
v 0.0824728 0.1183 -0.05588
v -0.0824728 0.161699 -0.05588
v -0.0714157 0.161699 -0.0825741
v -0.0447216 0.161699 -0.0936312
v -0.0180275 0.161699 -0.0825741
v -0.00697045 0.161699 -0.05588
v 0.00697045 0.161699 -0.05588
v 0.0180275 0.161699 -0.0825741
v 0.0447216 0.161699 -0.0936312
v 0.0714157 0.161699 -0.0825741
v 0.0824728 0.161699 -0.05588
vn 0 0 1
vn 0.707107 0.707107 0
vn 0 1 0
vn -0.707107 0.707107 0
vn -1 0 0
vn -0.707107 -0.707107 0
vn 0 -1 0
vn 0.707107 -0.707107 0
vn 1 0 0
vn -0.707107 -0.707107 0
vn 0.707107 -0.707107 0
vn 0.707107 0.707107 0
vn -0.707107 0.707107 0
vn -0.707107 -0.707107 0
vn 0.707107 -0.707107 0
vn 0.116797 -0.281972 -0.952287
vn -0.116797 -0.281972 -0.952287
vn -0.281972 -0.116797 -0.952287
vn -0.281972 0.116797 -0.952287
vn -0.116797 0.281972 -0.952287
vn 0.116797 0.281972 -0.952287
vn 0.281972 0.116797 -0.952287
vn 0.281972 -0.116797 -0.952287
vn -0.92388 0 0.382684
vn -0.382684 0 0.923879
vn 0.382683 0 0.92388
vn 0.382684 0 0.923879
vn -0.382683 0 0.92388
vn -0.92388 0 0.382684
vn -0.382684 0 0.923879
vn 0.382683 0 0.92388
vn 0.382684 0 0.923879
vn -0.382683 0 0.92388
vn 0.92388 0 0.382684
vn 0.92388 0 0.382684
vn 0.92388 0 0.382683
vn -0.92388 0 0.382683
vn 0.92388 0 0.382683
vn -0.92388 0 0.382683
vn -0.707107 0.707107 0
vn 0.707107 0.707107 0
vn 0 0 -1
vn 0.116797 -0.281972 0.952287
vn -0.116797 -0.281972 0.952287
vn -0.281972 -0.116797 0.952287
vn -0.281972 0.116797 0.952287
vn -0.116797 0.281972 0.952287
vn 0.116797 0.281972 0.952287
vn 0.281972 0.116797 0.952287
vn 0.281972 -0.116797 0.952287
vn -0.92388 0 -0.382684
vn -0.382684 0 -0.923879
vn 0.382683 0 -0.92388
vn 0.382684 0 -0.923879
vn -0.382683 0 -0.92388
vn -0.92388 0 -0.382684
vn -0.382684 0 -0.923879
vn 0.382683 0 -0.92388
vn 0.382684 0 -0.923879
vn -0.382683 0 -0.92388
vn 0.92388 0 -0.382684
vn 0.92388 0 -0.382684
vn 0.92388 0 -0.382683
vn -0.92388 0 -0.382683
vn 0.92388 0 -0.382683
vn -0.92388 0 -0.382683
vt 0.341208 0.897777
vt 0.352223 0.914667
vt 0.352223 0.752
vt 0.341208 0.76889
vt 0.408792 0.76889
vt 0.397777 0.752
vt 0.397777 0.914667
vt 0.408792 0.897777
vt 0.285834 1
vt 0.25 0.945055
vt 0.306223 0.928342
vt 0.31629 0.943777
vt 0.25 0.721612
vt 0.306223 0.738325
vt 0.285834 0.666667
vt 0.31629 0.72289
vt 0.464166 0.666667
vt 0.43371 0.72289
vt 0.5 0.721612
vt 0.443777 0.738325
vt 0.5 0.945055
vt 0.443777 0.928342
vt 0.464166 1
vt 0.43371 0.943777
vt 0.208791 0.555556
vt 0.208791 0.666667
vt 0.0412088 0.666667
vt 0.0412088 0.555556
vt 0.464166 0.555556
vt 0.285834 0.555556
vt 0.708791 0.555556
vt 0.708791 0.666667
vt 0.541209 0.666667
vt 0.541209 0.555556
vt 0.964166 0.555556
vt 0.964166 0.666667
vt 0.785834 0.666667
vt 0.785834 0.555556
vt 1.03583 0.555556
vt 1.03583 0.666667
vt 0.25 0.5
vt 0.25 0.25
vt 0.375 0.25
vt 0.375 0.5
vt 0.5 0.25
vt 0.5 0.5
vt 0.5 0
vt 0.625 0
vt 0.625 0.25
vt 0.625 0.5
vt 0.375 0
vt 0.75 0.25
vt 0.845671 0.51903
vt 0.654329 0.98097
vt 0.51903 0.845671
vt 0.51903 0.654329
vt 0.654329 0.51903
vt 0.75 0.5
vt 0.75 0
vt 0.25 0
mtllib PowerUp_Shotgun.mtl
usemtl Gold
g Default
f 94/45/26 84/47/26 85/48/26 95/49/26
f 93/43/28 83/51/28 84/47/28 94/45/28
f 89/45/31 79/47/31 80/48/31 90/49/31
f 88/43/33 78/51/33 79/47/33 89/45/33
f 71/52/3 70/49/3 90/49/3 91/52/3
f 70/49/3 69/45/3 89/45/3 90/49/3
f 69/45/3 68/43/3 88/43/3 89/45/3
f 68/43/3 67/42/3 87/42/3 88/43/3
f 76/52/3 75/49/3 95/49/3 96/52/3
f 75/49/3 74/45/3 94/45/3 95/49/3
f 74/45/3 73/43/3 93/43/3 94/45/3
f 73/43/3 72/42/3 92/42/3 93/43/3
f 96/52/36 95/49/36 85/48/36 86/59/36
f 93/43/37 92/42/37 82/60/37 83/51/37
f 86/59/7 85/48/7 84/47/7 83/51/7 82/60/7
f 91/52/38 90/49/38 80/48/38 81/59/38
f 88/43/39 87/42/39 77/60/39 78/51/39
f 81/59/7 80/48/7 79/47/7 78/51/7 77/60/7
f 190/45/53 191/49/53 181/48/53 180/47/53
f 189/43/55 190/45/55 180/47/55 179/51/55
f 185/45/58 186/49/58 176/48/58 175/47/58
f 184/43/60 185/45/60 175/47/60 174/51/60
f 167/52/3 187/52/3 186/49/3 166/49/3
f 166/49/3 186/49/3 185/45/3 165/45/3
f 165/45/3 185/45/3 184/43/3 164/43/3
f 164/43/3 184/43/3 183/42/3 163/42/3
f 172/52/3 192/52/3 191/49/3 171/49/3
f 171/49/3 191/49/3 190/45/3 170/45/3
f 170/45/3 190/45/3 189/43/3 169/43/3
f 169/43/3 189/43/3 188/42/3 168/42/3
f 192/52/63 182/59/63 181/48/63 191/49/63
f 189/43/64 179/51/64 178/60/64 188/42/64
f 182/59/7 178/60/7 179/51/7 180/47/7 181/48/7
f 187/52/65 177/59/65 176/48/65 186/49/65
f 184/43/66 174/51/66 173/60/66 183/42/66
f 177/59/7 173/60/7 174/51/7 175/47/7 176/48/7
usemtl Metal2
f 2/9/1 1/10/1 9/11/1 10/12/1
f 1/10/1 8/13/1 16/14/1 9/11/1
f 8/13/1 7/15/1 15/16/1 16/14/1
f 7/15/1 6/17/1 14/18/1 15/16/1
f 6/17/1 5/19/1 13/20/1 14/18/1
f 5/19/1 4/21/1 12/22/1 13/20/1
f 4/21/1 3/23/1 11/24/1 12/22/1
f 3/23/1 2/9/1 10/12/1 11/24/1
f 10/12/2 9/11/2 17/11/2 18/12/2
f 9/11/3 16/14/3 24/14/3 17/11/3
f 16/14/4 15/16/4 23/16/4 24/14/4
f 15/16/5 14/18/5 22/18/5 23/16/5
f 14/18/6 13/20/6 21/20/6 22/18/6
f 13/20/7 12/22/7 20/22/7 21/20/7
f 12/22/8 11/24/8 19/24/8 20/22/8
f 11/24/9 10/12/9 18/12/9 19/24/9
f 41/25/7 8/26/7 1/27/7 42/28/7
f 43/29/9 6/17/9 7/15/9 44/30/9
f 45/31/3 4/32/3 5/33/3 46/34/3
f 47/35/5 2/36/5 3/37/5 48/38/5
f 48/38/13 3/37/13 4/32/13 45/31/13
f 42/39/14 1/40/14 2/36/14 47/35/14
f 46/34/12 5/33/12 6/17/12 43/29/12
f 44/30/15 7/15/15 8/26/15 41/25/15
f 41/25/16 42/28/17 50/28/17 49/25/16
f 42/39/17 47/35/18 55/35/18 50/39/17
f 47/35/18 48/38/19 56/38/19 55/35/18
f 48/38/19 45/31/20 53/31/20 56/38/19
f 45/31/20 46/34/21 54/34/21 53/31/20
f 46/34/21 43/29/22 51/29/22 54/34/21
f 43/29/22 44/30/23 52/30/23 51/29/22
f 44/30/23 41/25/16 49/25/16 52/30/23
f 49/25/7 50/28/7 146/28/7 145/25/7
f 51/29/9 52/30/9 148/30/9 147/29/9
f 53/31/3 54/34/3 150/34/3 149/31/3
f 152/38/5 151/35/5 55/35/5 56/38/5
f 56/38/40 53/31/40 149/31/40 152/38/40
f 50/39/10 55/35/10 151/35/10 146/39/10
f 54/34/41 51/29/41 147/29/41 150/34/41
f 52/30/11 49/25/11 145/25/11 148/30/11
f 98/9/42 106/12/42 105/11/42 97/10/42
f 97/10/42 105/11/42 112/14/42 104/13/42
f 104/13/42 112/14/42 111/16/42 103/15/42
f 103/15/42 111/16/42 110/18/42 102/17/42
f 102/17/42 110/18/42 109/20/42 101/19/42
f 101/19/42 109/20/42 108/22/42 100/21/42
f 100/21/42 108/22/42 107/24/42 99/23/42
f 99/23/42 107/24/42 106/12/42 98/9/42
f 106/12/2 114/12/2 113/11/2 105/11/2
f 105/11/3 113/11/3 120/14/3 112/14/3
f 112/14/4 120/14/4 119/16/4 111/16/4
f 111/16/5 119/16/5 118/18/5 110/18/5
f 110/18/6 118/18/6 117/20/6 109/20/6
f 109/20/7 117/20/7 116/22/7 108/22/7
f 108/22/8 116/22/8 115/24/8 107/24/8
f 107/24/9 115/24/9 114/12/9 106/12/9
f 137/25/7 138/28/7 97/27/7 104/26/7
f 139/29/9 140/30/9 103/15/9 102/17/9
f 141/31/3 142/34/3 101/33/3 100/32/3
f 143/35/5 144/38/5 99/37/5 98/36/5
f 144/38/13 141/31/13 100/32/13 99/37/13
f 138/39/14 143/35/14 98/36/14 97/40/14
f 142/34/12 139/29/12 102/17/12 101/33/12
f 140/30/15 137/25/15 104/26/15 103/15/15
f 137/25/43 145/25/43 146/28/44 138/28/44
f 138/39/44 146/39/44 151/35/45 143/35/45
f 143/35/45 151/35/45 152/38/46 144/38/46
f 144/38/46 152/38/46 149/31/47 141/31/47
f 141/31/47 149/31/47 150/34/48 142/34/48
f 142/34/48 150/34/48 147/29/49 139/29/49
f 139/29/49 147/29/49 148/30/50 140/30/50
f 140/30/50 148/30/50 145/25/43 137/25/43
usemtl Shell_Red
f 57/41/24 67/42/24 68/43/24 58/44/24
f 58/44/25 68/43/25 69/45/25 59/46/25
f 59/46/27 69/45/27 70/49/27 60/50/27
f 62/41/29 72/42/29 73/43/29 63/44/29
f 63/44/30 73/43/30 74/45/30 64/46/30
f 64/46/32 74/45/32 75/49/32 65/50/32
f 61/53/3 57/54/3 58/55/3 59/56/3 60/57/3
f 61/58/34 60/50/34 70/49/34 71/52/34
f 66/53/3 62/54/3 63/55/3 64/56/3 65/57/3
f 66/58/35 65/50/35 75/49/35 76/52/35
f 153/41/51 154/44/51 164/43/51 163/42/51
f 154/44/52 155/46/52 165/45/52 164/43/52
f 155/46/54 156/50/54 166/49/54 165/45/54
f 158/41/56 159/44/56 169/43/56 168/42/56
f 159/44/57 160/46/57 170/45/57 169/43/57
f 160/46/59 161/50/59 171/49/59 170/45/59
f 157/53/3 156/57/3 155/56/3 154/55/3 153/54/3
f 157/58/61 167/52/61 166/49/61 156/50/61
f 162/53/3 161/57/3 160/56/3 159/55/3 158/54/3
f 162/58/62 172/52/62 171/49/62 161/50/62
usemtl PowerUp1
f 34/1/1 33/2/1 40/3/1 39/4/1 38/5/1 37/6/1 36/7/1 35/8/1
f 18/12/1 17/11/1 25/2/1 26/1/1
f 17/11/1 24/14/1 32/3/1 25/2/1
f 24/14/1 23/16/1 31/4/1 32/3/1
f 23/16/1 22/18/1 30/5/1 31/4/1
f 22/18/1 21/20/1 29/6/1 30/5/1
f 21/20/1 20/22/1 28/7/1 29/6/1
f 20/22/1 19/24/1 27/8/1 28/7/1
f 19/24/1 18/12/1 26/1/1 27/8/1
f 26/1/10 25/2/10 33/2/10 34/1/10
f 25/2/7 32/3/7 40/3/7 33/2/7
f 32/3/11 31/4/11 39/4/11 40/3/11
f 31/4/9 30/5/9 38/5/9 39/4/9
f 30/5/12 29/6/12 37/6/12 38/5/12
f 29/6/3 28/7/3 36/7/3 37/6/3
f 28/7/13 27/8/13 35/8/13 36/7/13
f 27/8/5 26/1/5 34/1/5 35/8/5
f 130/1/42 131/8/42 132/7/42 133/6/42 134/5/42 135/4/42 136/3/42 129/2/42
f 114/12/42 122/1/42 121/2/42 113/11/42
f 113/11/42 121/2/42 128/3/42 120/14/42
f 120/14/42 128/3/42 127/4/42 119/16/42
f 119/16/42 127/4/42 126/5/42 118/18/42
f 118/18/42 126/5/42 125/6/42 117/20/42
f 117/20/42 125/6/42 124/7/42 116/22/42
f 116/22/42 124/7/42 123/8/42 115/24/42
f 115/24/42 123/8/42 122/1/42 114/12/42
f 122/1/10 130/1/10 129/2/10 121/2/10
f 121/2/7 129/2/7 136/3/7 128/3/7
f 128/3/11 136/3/11 135/4/11 127/4/11
f 127/4/9 135/4/9 134/5/9 126/5/9
f 126/5/12 134/5/12 133/6/12 125/6/12
f 125/6/3 133/6/3 132/7/3 124/7/3
f 124/7/13 132/7/13 131/8/13 123/8/13
f 123/8/5 131/8/5 130/1/5 122/1/5
